<svg viewBox="0 0 78 96" xmlns="http://www.w3.org/2000/svg">
  <path
    d="M1.1 17.4C0.999998 11.4 2.4 5.4 5.1 0L10.7 3.4C16.2 1 22.4 1 27.8 3.4L33.4 0C36.4 5.8 37.7 12.3 37.4 18.7C37.3 21.1 36.6 23.5 35.5 25.6C59.6 35.5 76.1 58.2 78 84.2C75.2 82.9 72.5 81.5 69.8 80L71.9 85.7C68.1 88 63.4 88.6 59.1 87.4C57.5 87 56.1 86 55.2 84.7C52.7 81.3 50 78.2 46.9 75.4V80C45.3 80.4 43.7 80.7 42 80.9L37.8 91.9H47L48.5 95.9H0.199997L2 91.9H16.1L22.6 79.7C21.4 79.3 20.3 78.8 19.2 78.3L20.8 65.5C21.2 62.1 20 58.8 17.6 56.4C7.1 46.1 1.2 32 1.1 17.4ZM69.2 84.7L66.9 78.4C56.1 72.2 46.1 64.8 37 56.4C29.9 49.8 27.7 39.4 31.7 30.5C30.9 31.2 29.9 31.9 29 32.5C23 35.9 15.7 35.9 9.7 32.5C7.7 31.3 5.9 29.8 4.5 27.9C6.6 37.8 11.5 46.9 18.5 54.2C22.4 58.2 26.6 62 31 65.5C32.4 66.6 33.5 68.2 34 69.9L36.9 79.1C39.6 79 42.3 78.7 44.9 78.2V70.5C49.5 74.2 53.6 78.5 57.1 83.3C57.8 84.2 58.7 84.9 59.8 85.2C62.9 86.2 66.2 86 69.2 84.7ZM75.4 80.5C72.3 57.2 57.1 37.2 35.5 28C29.7 36.4 30.9 47.8 38.4 54.7C49.5 65 62 73.7 75.4 80.5ZM33.6 92L37.7 81.3C36.9 81.3 36 81.3 35.2 81.3L32.6 73L30.8 81.1C29.4 81.1 28 81 26.7 80.8L20.7 92H33.6ZM35.1 18.6C35.4 13.3 34.4 7.9 32.3 3L27.6 5.5C22.2 3.4 16.2 3.4 10.8 5.5L6.1 3C4 7.9 3 13.3 3.3 18.6C3.6 23.6 6.3 28.1 10.7 30.5C16 33.5 22.5 33.5 27.8 30.5C32.1 28.1 34.9 23.6 35.1 18.6ZM29 78.8L31.1 69.1C30.7 68.4 30.1 67.7 29.4 67.2C27.3 65.5 25.3 63.8 23.3 62L21.5 77C23.9 78 26.5 78.7 29 78.8Z"
    fill="currentColor"
  />
  <path
    d="M31.6 11.6C33 14 32.1 17 29.7 18.4C27.3 19.8 24.3 18.9 22.9 16.5L19.2 27.6L15.5 16.5C14.6 18 12.9 19 11.2 19C8.4 19 6.2 16.8 6.2 14C6.2 11.2 8.4 9 11.2 9C12.6 9 14 9.1 15.4 9.4L19.3 22.8L23.2 9.4C24.6 9.1 26 9 27.4 9C29.1 9 30.7 10 31.6 11.6ZM30.3 14C30.3 12.3 29 11 27.3 11C25.6 11 24.3 12.3 24.3 14C24.3 15.7 25.6 17 27.3 17C29 17 30.3 15.7 30.3 14ZM14.2 14C14.2 12.3 12.9 11 11.2 11C9.5 11 8.2 12.3 8.2 14C8.2 15.7 9.5 17 11.2 17C12.8 17 14.2 15.7 14.2 14Z"
    fill="currentColor"
  />
  <path
    d="M27.3 11.7C28.6 11.7 29.6 12.7 29.6 14C29.6 15.3 28.6 16.3 27.3 16.3C26 16.3 25 15.3 25 14C25 12.8 26 11.7 27.3 11.7Z"
    fill="currentColor"
  />
  <path
    d="M11.1 11.7C12.4 11.7 13.4 12.7 13.4 14C13.4 15.3 12.4 16.3 11.1 16.3C9.8 16.3 8.8 15.3 8.8 14C8.9 12.8 9.9 11.7 11.1 11.7Z"
    fill="currentColor"
  />
</svg>
